<svg width="214" height="30" viewBox="0 0 214 30" fill="none" xmlns="http://www.w3.org/2000/svg">
<path fill-rule="evenodd" clip-rule="evenodd" d="M38.7071 29.9248H32.735C28.284 29.9248 24.6763 26.3178 24.6763 21.8668V7.83989C24.6749 7.83778 38.7071 7.83636 38.7071 7.83636C43.1566 7.83636 46.7651 11.4441 46.7651 15.8937V21.8668C46.7651 26.3178 43.1566 29.9248 38.7071 29.9248Z" fill="#0F7AD1"/>
<mask id="mask0" mask-type="alpha" maskUnits="userSpaceOnUse" x="0" y="0" width="23" height="23">
<path fill-rule="evenodd" clip-rule="evenodd" d="M0 0.352966H22.0895V22.4421H0V0.352966Z" fill="white"/>
</mask>
<g mask="url(#mask0)">
<path fill-rule="evenodd" clip-rule="evenodd" d="M8.05871 0.352905H14.0308C18.4811 0.352905 22.0895 3.96032 22.0895 8.4109V22.4378L8.05871 22.4421C3.60847 22.4421 0 18.8336 0 14.383V8.4109C0 3.96032 3.60847 0.352905 8.05871 0.352905Z" fill="#221E1F"/>
</g>
<path fill-rule="evenodd" clip-rule="evenodd" d="M62.5584 11.1118L60.0659 18.2849H64.9679L62.5584 11.1118ZM67.1558 25.0155L65.9935 21.526H58.9855L57.7944 25.0155H53.7793L60.9525 5.29565H63.9708L71.1715 25.0155H67.1558Z" fill="#231F20"/>
<path fill-rule="evenodd" clip-rule="evenodd" d="M81.6977 25.0156V16.2909C81.6977 14.7401 80.839 13.6597 79.3157 13.6597C77.7642 13.6597 76.9065 14.7125 76.9065 16.2909V25.0156H73.3062V10.586H76.8229V11.9155C77.7642 10.9181 78.9553 10.4194 80.4236 10.4194C82.0026 10.4194 83.221 10.9181 84.0797 11.943C84.8833 12.9122 85.298 14.186 85.298 15.7925V25.0156H81.6977Z" fill="#231F20"/>
<path fill-rule="evenodd" clip-rule="evenodd" d="M96.0261 18.9221H93.1736C91.8155 18.9221 91.1516 19.4759 91.1516 20.5566C91.1516 21.6641 91.8437 22.2179 93.2279 22.2179C94.4745 22.2179 95.2782 21.9137 95.6939 21.3045C95.9145 20.9717 96.0261 20.4454 96.0261 19.6979V18.9221ZM96.1086 25.0157V23.7691C95.1949 24.6832 94.0048 25.1533 92.5641 25.1533C91.069 25.1533 89.9057 24.7665 89.0463 24.0186C88.1325 23.2428 87.6899 22.1071 87.6899 20.6396C87.6899 19.2543 88.1883 18.2018 89.1571 17.4539C90.043 16.7893 91.2066 16.4568 92.6191 16.4568H96.0261V15.7368C96.0261 14.2139 95.1398 13.4664 93.3388 13.4664C92.1758 13.4664 91.2614 13.8539 90.5696 14.6568L88.2709 12.4136C88.963 11.6385 89.7666 11.1119 90.625 10.807C91.3729 10.5578 92.3149 10.4194 93.4785 10.4194C97.5769 10.4194 99.6264 12.109 99.6264 15.5159V25.0157H96.1086Z" fill="#231F20"/>
<path fill-rule="evenodd" clip-rule="evenodd" d="M110.706 15.0445C110.346 14.1311 109.626 13.6599 108.573 13.6599C107.493 13.6599 106.801 14.1311 106.441 15.0445C106.247 15.5714 106.137 16.4848 106.137 17.7872C106.137 19.0885 106.247 20.0022 106.441 20.5288C106.801 21.4701 107.521 21.9413 108.573 21.9413C109.626 21.9413 110.346 21.4701 110.706 20.5567C110.928 19.9744 111.039 19.0606 111.039 17.7872C111.039 16.5406 110.928 15.6261 110.706 15.0445ZM111.122 25.0154V23.6584C110.208 24.6833 109.017 25.1817 107.549 25.1817C104.807 25.1817 103.2 23.8242 102.73 21.1101C102.591 20.3622 102.536 19.2544 102.536 17.7872C102.536 16.3465 102.591 15.2386 102.73 14.4914C103.2 11.7762 104.779 10.4195 107.521 10.4195C108.989 10.4195 110.18 10.89 111.039 11.8599V5.29553H114.639V25.0154H111.122Z" fill="#231F20"/>
<path fill-rule="evenodd" clip-rule="evenodd" d="M125.22 15.0169C124.86 14.1035 124.14 13.6598 123.088 13.6598C122.062 13.6598 121.343 14.131 120.982 15.0444C120.733 15.654 120.593 16.5681 120.593 17.7871C120.593 19.0334 120.705 19.9464 120.954 20.5567C121.343 21.4701 122.062 21.9413 123.088 21.9413C124.14 21.9413 124.86 21.4701 125.22 20.5567C125.469 19.9743 125.608 19.0334 125.608 17.7871C125.608 16.5406 125.469 15.6264 125.22 15.0169ZM127.574 23.4091C126.438 24.6 124.943 25.1816 123.088 25.1816C121.231 25.1816 119.764 24.6 118.628 23.4091C117.548 22.2741 116.994 20.418 116.994 17.7871C116.994 12.8844 119.016 10.4195 123.088 10.4195C127.158 10.4195 129.208 12.8844 129.208 17.7871C129.208 20.418 128.653 22.2741 127.574 23.4091Z" fill="#231F20"/>
<path fill-rule="evenodd" clip-rule="evenodd" d="M135.661 25.0156C133.141 25.0156 131.452 23.409 131.452 20.889V5.29572H135.052V20.667C135.052 21.5261 135.468 21.9687 136.327 21.9687H137.712V25.0156H135.661Z" fill="#231F20"/>
<path fill-rule="evenodd" clip-rule="evenodd" d="M147.793 25.0156V23.6861C146.851 24.6835 145.66 25.1818 144.193 25.1818C142.615 25.1818 141.396 24.6835 140.537 23.6585C139.734 22.689 139.319 21.4149 139.319 19.8086V10.5859H142.918V19.3103C142.918 20.8611 143.776 21.9411 145.3 21.9411C146.851 21.9411 147.71 20.889 147.71 19.3103V10.5859H151.311V25.0156H147.793Z" fill="#231F20"/>
<path fill-rule="evenodd" clip-rule="evenodd" d="M162.961 15.0445C162.601 14.1311 161.909 13.6599 160.828 13.6599C159.748 13.6599 159.055 14.1311 158.696 15.0445C158.502 15.5714 158.391 16.4848 158.391 17.7872C158.391 19.0885 158.502 20.0022 158.696 20.5288C159.055 21.4701 159.776 21.9413 160.828 21.9413C161.88 21.9413 162.601 21.4701 162.961 20.5288C163.155 20.0022 163.266 19.0885 163.266 17.7872C163.266 16.4848 163.155 15.5714 162.961 15.0445ZM166.672 21.1101C166.201 23.8242 164.622 25.1817 161.88 25.1817C160.413 25.1817 159.194 24.6833 158.279 23.6584V25.0154H154.791V5.29553H158.391V11.8599C159.25 10.89 160.413 10.4195 161.88 10.4195C164.622 10.4195 166.201 11.7762 166.672 14.4914C166.811 15.2386 166.866 16.3465 166.866 17.7872C166.866 19.2544 166.811 20.3622 166.672 21.1101Z" fill="#231F20"/>
<path fill-rule="evenodd" clip-rule="evenodd" d="M177.303 18.9221H174.45C173.093 18.9221 172.429 19.4759 172.429 20.5566C172.429 21.6641 173.121 22.2179 174.506 22.2179C175.752 22.2179 176.555 21.9137 176.971 21.3045C177.192 20.9717 177.303 20.4454 177.303 19.6979V18.9221ZM177.386 25.0157V23.7691C176.472 24.6832 175.281 25.1533 173.841 25.1533C172.346 25.1533 171.182 24.7665 170.323 24.0186C169.409 23.2428 168.966 22.1071 168.966 20.6396C168.966 19.2543 169.465 18.2018 170.435 17.4539C171.321 16.7893 172.484 16.4568 173.896 16.4568H177.303V15.7368C177.303 14.2139 176.417 13.4664 174.616 13.4664C173.454 13.4664 172.539 13.8539 171.848 14.6568L169.548 12.4136C170.24 11.6385 171.043 11.1119 171.901 10.807C172.65 10.5578 173.592 10.4194 174.755 10.4194C178.855 10.4194 180.904 12.109 180.904 15.5159V25.0157H177.386Z" fill="#231F20"/>
<path fill-rule="evenodd" clip-rule="evenodd" d="M192.675 25.0156V16.2909C192.675 14.7401 191.817 13.6597 190.294 13.6597C188.743 13.6597 187.883 14.7125 187.883 16.2909V25.0156H184.284V10.586H187.801V11.9155C188.743 10.9181 189.933 10.4194 191.402 10.4194C192.98 10.4194 194.199 10.9181 195.057 11.943C195.861 12.9122 196.276 14.186 196.276 15.7925V25.0156H192.675Z" fill="#231F20"/>
<mask id="mask1" mask-type="alpha" maskUnits="userSpaceOnUse" x="199" y="5" width="14" height="21">
<path fill-rule="evenodd" clip-rule="evenodd" d="M199.656 5.29572H212.784V25.0156H199.656V5.29572Z" fill="white"/>
</mask>
<g mask="url(#mask1)">
<path fill-rule="evenodd" clip-rule="evenodd" d="M208.325 25.0156L204.78 19.0054L203.257 20.7224V25.0156H199.656V5.29572H203.257V16.485L208.048 10.586H212.396L207.245 16.4017L212.784 25.0156H208.325Z" fill="#231F20"/>
</g>
</svg>
